# xmcd
#
# Track frame offsets: 
#        150
#        17468
#        39306
#        49976
#        57593
#        72942
#        87515
#        99847
#        110345
#        129682
#        158897
#        181298
#        195832
#        221696
#        238887
#
# Disc length: 3435 seconds
#
# Revision: 0
# Processed by: cddbd v1.5.2PL0 Copyright (c) Steve Scherf et al.
# Submitted via: ExactAudioCopy v1.1
#
DISCID=cc0d690f
DTITLE=Various Artist - Gospel Collection CD2
DYEAR=1992
DGENRE=Gospel
TTITLE0=West Angeles Cogic Mass Choir and Congregation - Joy Tho The Wor
TTITLE0=ld
TTITLE1=West Angeles Cogic Mass Choir and Congregation - Away In A Manag
TTITLE1=er-Silent Night (Medley)
TTITLE2=West Angeles Cogic Mass Choir and Congregation - Abide In Me
TTITLE3=West Angeles Cogic Mass Choir and Congregation - On The Lord's D
TTITLE3=ay
TTITLE4=West Angeles Cogic Mass Choir and Congregation - Great Is The Lo
TTITLE4=rd (Saint In Praise Album Version)
TTITLE5=West Angeles Cogic Mass Choir and Congregation - My Lord's Praye
TTITLE5=r 
TTITLE6=West Angeles Cogic Mass Choir and Congregation - Praise The Name
TTITLE6=Of Jesus (Saints In Praise Album Version)
TTITLE7=West Angeles Cogic Mass Choir and Congregation - What A Mighty G
TTITLE7=od We Serve (Saints In Praise Album Version)
TTITLE8=West Angeles Cogic Mass Choir and Congregation - Praise Medley  
TTITLE8=(O Come Let Us Adore Him-For You Are Worthy-I Love You Lord-I 
TTITLE8=Exalt Thee)
TTITLE9=Richard Smallwood - O Holy Night
TTITLE10=Richard Smallwood - The Light
TTITLE11=Richard Smallwood - Wonderful Counselor
TTITLE12=Tramaine Hawkins - O Come All Ye Faithful
TTITLE13=Norman Hutchins - Mark! The Erald Angels Sing
TTITLE14=Pastor Donald Alford And The Progressive Radio Choir - Hallel
TTITLE14=ujah Chorus (A Gospel Family Christmas Album Version)
EXTD=
EXTT0=
EXTT1=
EXTT2=
EXTT3=
EXTT4=
EXTT5=
EXTT6=
EXTT7=
EXTT8=
EXTT9=
EXTT10=
EXTT11=
EXTT12=
EXTT13=
EXTT14=
PLAYORDER=
